<svg preserveAspectRatio="none" overflow="visible" style="display: block;" width="104" height="103" viewBox="0 0 104 103" fill="none" xmlns="http://www.w3.org/2000/svg">
<g id="Group">
<g id="Vector">
<path d="M98.9629 70.3207L60.3336 32.0852V15.1288C60.3336 12.4519 59.7336 9.75441 58.5502 7.23825L57.6711 5.58845C56.6336 3.37351 54.4627 2 52.0002 2C49.5377 2 47.3668 3.37351 46.3752 5.49352L45.4043 7.32892C44.2668 9.75422 43.6668 12.4477 43.6668 15.1286V32.085L5.05001 70.3126C3.0834 72.2593 2 74.8455 2 77.6008V82.435C2 83.1898 2.4166 83.8827 3.0834 84.2416C3.75001 84.6045 4.56681 84.5798 5.20841 84.1674L44.4752 59.2586C44.8627 65.4991 45.3877 70.7085 46.0293 77.0483L46.6918 83.5446L32.1042 93.0849C31.5167 93.4726 31.1667 94.116 31.1667 94.809V98.9335C31.1667 99.5563 31.4542 100.15 31.9458 100.542C32.4417 100.938 33.0874 101.087 33.6999 100.95L52 96.9207L70.3001 100.95C70.4501 100.984 70.6001 101 70.7501 101C71.221 101 71.6792 100.843 72.0542 100.546C72.5458 100.15 72.8333 99.5563 72.8333 98.9335V94.809C72.8333 94.116 72.4833 93.4685 71.8958 93.089L57.3082 83.561L57.9707 77.044C58.6123 70.7126 59.1373 65.5074 59.5248 59.2667L98.7916 84.1672C99.4375 84.5796 100.25 84.6002 100.913 84.2414C101.583 83.8826 102 83.1896 102 82.4348V77.6006C102 74.8455 100.921 72.2593 98.9629 70.3207Z" fill="#070606" fill-opacity="0.1"/>
<path d="M52 1C54.8375 1 57.3561 2.58426 58.5645 5.13867L59.4326 6.76758L59.4443 6.79004L59.4551 6.8125C60.7002 9.45982 61.334 12.3028 61.334 15.1289V31.667L99.666 69.6104C101.814 71.7367 103 74.5784 103 77.6006V82.4346C103 83.5597 102.379 84.588 101.388 85.1201L101.389 85.1211C100.412 85.6499 99.2124 85.6204 98.2559 85.0107L60.4111 61.0127C60.035 66.5501 59.549 71.3901 58.9658 77.1445V77.1455L58.3643 83.0557L72.4375 92.249H72.4385C73.3117 92.8131 73.8329 93.7771 73.833 94.8086V98.9336C73.833 99.8647 73.4044 100.743 72.6816 101.325L72.6748 101.33C72.1216 101.768 71.4443 102 70.75 102C70.5823 102 70.4154 101.986 70.25 101.959L70.085 101.927L52 97.9443L33.916 101.926C33.0078 102.127 32.0539 101.907 31.3223 101.323C30.5954 100.744 30.167 99.8636 30.167 98.9336V94.8086C30.1671 93.7732 30.6913 92.819 31.5537 92.25L31.5566 92.248L45.6348 83.04L45.0342 77.1494C44.451 71.3874 43.964 66.5429 43.5879 61.0049L5.74805 85.0078L5.74902 85.0088C4.79664 85.6209 3.58913 85.6555 2.60547 85.1201V85.1191C1.61988 84.5867 1 83.5587 1 82.4346V77.6006C1.00007 74.5766 2.19163 71.7349 4.34668 69.6016L42.667 31.666V15.1289C42.667 12.3014 43.2991 9.46259 44.499 6.9043L44.5088 6.88281L44.5205 6.86133L45.4912 5.02637C46.6622 2.5679 49.1797 1.00007 52 1Z" stroke="#070606" stroke-opacity="0.7" stroke-width="2"/>
</g>
</g>
</svg>
