<svg preserveAspectRatio="none" overflow="visible" style="display: block;" width="45" height="37" viewBox="0 0 45 37" fill="none" xmlns="http://www.w3.org/2000/svg">
<g id="Frame">
<g clip-path="url(#clip0_0_8)">
<path id="Vector" d="M3.06303 23.6916C8.78274 15.8642 14.8271 8.28825 21.113 0.90501C21.5959 0.335135 20.6967 0.0250553 20.2804 -8.62389e-05C19.5394 -0.0419888 18.7485 0.284851 18.2656 0.837966C11.8799 8.15416 5.86044 15.7888 0.124089 23.6246C-0.325495 24.2364 0.507068 24.5297 0.981628 24.5548C1.68931 24.5884 2.6301 24.2867 3.06303 23.6916V23.6916Z" fill="#070606"/>
<path id="Vector_2" d="M11.8097 26.6067C15.2732 24.3272 18.7366 22.0477 22.1917 19.7598C22.5997 19.4917 23.0992 18.8966 22.4582 18.5698C21.8171 18.243 20.8513 18.5028 20.3018 18.8547C16.8217 21.1259 13.3499 23.397 9.86982 25.6765C9.45354 25.953 8.93735 26.5648 9.59508 26.9C10.2528 27.2353 11.2436 26.9755 11.8014 26.6067H11.8097Z" fill="#070606"/>
<path id="Vector_3" d="M20.1664 31.858C28.159 29.2097 36.1599 26.5782 44.1525 23.9049C44.5937 23.7624 45.6511 23.3769 45.4762 22.7232C45.3097 22.103 44.1525 22.2288 43.7445 22.3628C35.7436 24.9859 27.751 27.6342 19.7501 30.2824C19.3005 30.4333 18.2182 30.8188 18.4013 31.4892C18.5678 32.1178 19.7501 31.9921 20.1747 31.8496L20.1664 31.858Z" fill="#070606"/>
</g>
</g>
<defs>
<clipPath id="clip0_0_8">
<rect width="45" height="37" rx="18.5" fill="white"/>
</clipPath>
</defs>
</svg>
